<?xml version="1.0" encoding="utf-8"?>
<!-- Generator: Adobe Illustrator 17.0.0, SVG Export Plug-In . SVG Version: 6.00 Build 0)  -->
<!DOCTYPE svg PUBLIC "-//W3C//DTD SVG 1.1//EN" "http://www.w3.org/Graphics/SVG/1.1/DTD/svg11.dtd">
<svg version="1.1" id="Vrstva_1" xmlns="http://www.w3.org/2000/svg" xmlns:xlink="http://www.w3.org/1999/xlink" x="0px" y="0px"
	 width="440px" height="190px" viewBox="0 0 440 190" enable-background="new 0 0 440 190" xml:space="preserve">
<g>
	<path fill="#CCCCCC" d="M430.667,96.33c0-11.346-2.667-20.71-6.667-22.138v-0.525H17v0.33c-4,0-7.417,10.001-7.417,22.335
		c0,12.334,3.682,22.335,7.917,22.335H424v-0.199C428,117.04,430.667,107.676,430.667,96.33z"/>
	<g>
		<path fill="#E6E6E6" d="M40.415,33.37c0.159,0-0.415,0.03,0.585,0.073v-0.777h36v128H41v-0.311c-1,0.043-0.425,0.073-0.585,0.073
			c-5.767,0-10.442-28.443-10.442-63.529S34.648,33.37,40.415,33.37z"/>
		<path fill="#F2F2F2" d="M85.634,7.33C85.725,7.33,86,7.341,86,7.351V6.667h52v180H86v-0.024c0,0.01-0.275,0.021-0.366,0.021
			c-8.14,0-14.738-40.145-14.738-89.667S77.494,7.33,85.634,7.33z"/>
		<ellipse fill="#CCCCCC" cx="138.762" cy="96.997" rx="14.738" ry="89.667"/>
	</g>
	<g>
		<path fill="#E6E6E6" d="M399.946,33.37c-0.159,0,0.054,0.03-0.946,0.073v-0.777h-36v128h36v-0.311
			c1,0.043,0.787,0.073,0.946,0.073c5.767,0,10.442-28.443,10.442-63.529S405.713,33.37,399.946,33.37z"/>
		<path fill="#F2F2F2" d="M354.728,7.33c-0.091,0-0.728,0.011-0.728,0.021V6.667h-52v180h52v-0.024c0,0.01,0.636,0.021,0.728,0.021
			c8.14,0,14.738-40.145,14.738-89.667S362.867,7.33,354.728,7.33z"/>
		<ellipse fill="#CCCCCC" cx="301.961" cy="96.997" rx="14.738" ry="89.667"/>
	</g>
</g>
<g>
</g>
<g>
</g>
<g>
</g>
<g>
</g>
<g>
</g>
<g>
</g>
<g>
</g>
<g>
</g>
<g>
</g>
<g>
</g>
<g>
</g>
<g>
</g>
<g>
</g>
<g>
</g>
<g>
</g>
</svg>
