<?xml version="1.0" encoding="utf-8"?>
<!-- Generator: Adobe Illustrator 17.0.0, SVG Export Plug-In . SVG Version: 6.00 Build 0)  -->
<!DOCTYPE svg PUBLIC "-//W3C//DTD SVG 1.1//EN" "http://www.w3.org/Graphics/SVG/1.1/DTD/svg11.dtd">
<svg version="1.1" id="Vrstva_1" xmlns="http://www.w3.org/2000/svg" xmlns:xlink="http://www.w3.org/1999/xlink" x="0px" y="0px"
	 width="1000px" height="1000px" viewBox="0 0 1000 1000" enable-background="new 0 0 1000 1000" xml:space="preserve">
<g>
	<g>
		<g>
			<path fill="#4D4D4D" d="M0,568.236c0,0,48-43.986,48-68.236c0-24-47.293-68.236-47.293-68.236"/>
			<path fill="#4D4D4D" d="M1000,431.764c0,0-48,43.986-48,68.236c0,24,47.293,68.236,47.293,68.236"/>
		</g>
	</g>
	<g>
		<g>
			<path fill="#4D4D4D" d="M431.764,0c0,0,43.986,48,68.236,48c24,0,68.236-47.293,68.236-47.293"/>
			<path fill="#4D4D4D" d="M568.236,1000c0,0-43.986-48-68.236-48c-24,0-68.236,47.293-68.236,47.293"/>
		</g>
	</g>
</g>
<g>
	<g>
		<g>
			<g>
				<polygon fill="#F2F2F2" points="725,889.711 756.062,929.513 743.938,936.513 				"/>
			</g>
			<g>
				<polygon fill="#F2F2F2" points="243.938,70.487 256.062,63.487 275.289,110.122 				"/>
			</g>
		</g>
	</g>
	<g>
		<g>
			<g>
				<polygon fill="#F2F2F2" points="889.711,725 936.513,743.938 929.513,756.062 				"/>
			</g>
			<g>
				<polygon fill="#F2F2F2" points="63.487,256.062 70.487,243.938 110.455,274.711 				"/>
			</g>
		</g>
	</g>
	<g>
		<g>
			<g>
				<polygon fill="#F2F2F2" points="950,500 1000,493 1000,507 				"/>
			</g>
			<g>
				<polygon fill="#F2F2F2" points="0,507 0,493 50,499.667 				"/>
			</g>
		</g>
	</g>
	<g>
		<g>
			<g>
				<polygon fill="#F2F2F2" points="889.711,275 929.513,243.938 936.513,256.062 				"/>
			</g>
			<g>
				<polygon fill="#F2F2F2" points="70.487,756.062 63.487,743.938 110.122,724.711 				"/>
			</g>
		</g>
	</g>
	<g>
		<g>
			<g>
				<polygon fill="#F2F2F2" points="725,110.289 743.938,63.487 756.062,70.487 				"/>
			</g>
			<g>
				<polygon fill="#F2F2F2" points="256.062,936.513 243.938,929.513 274.711,889.545 				"/>
			</g>
		</g>
	</g>
	<g>
		<g>
			<g>
				<polygon fill="#F2F2F2" points="500,50 493,0 507,0 				"/>
			</g>
			<g>
				<polygon fill="#F2F2F2" points="507,1000 493,1000 499.667,950 				"/>
			</g>
		</g>
	</g>
</g>
<g>
	<g>
		<g>
			<g>
				<g>
					<polygon fill="#999999" points="550.592,981.349 559.226,996.529 545.303,997.993 					"/>
				</g>
			</g>
			<g>
				<g>
					<polygon fill="#999999" points="449.408,18.651 440.774,3.471 454.697,2.007 					"/>
				</g>
			</g>
		</g>
	</g>
	<g>
		<g>
			<g>
				<g>
					<polygon fill="#999999" points="600.629,973.423 610.803,987.618 597.109,990.529 					"/>
				</g>
			</g>
			<g>
				<g>
					<polygon fill="#999999" points="399.371,26.577 389.197,12.382 402.891,9.471 					"/>
				</g>
			</g>
		</g>
	</g>
	<g>
		<g>
			<g>
				<g>
					<polygon fill="#999999" points="649.564,960.311 661.166,973.365 647.851,977.691 					"/>
				</g>
			</g>
			<g>
				<g>
					<polygon fill="#999999" points="350.436,39.689 338.834,26.635 352.149,22.309 					"/>
				</g>
			</g>
		</g>
	</g>
	<g>
		<g>
			<g>
				<g>
					<polygon fill="#999999" points="696.861,942.156 709.763,953.926 696.974,959.62 					"/>
				</g>
			</g>
			<g>
				<g>
					<polygon fill="#999999" points="303.139,57.844 290.237,46.074 303.026,40.38 					"/>
				</g>
			</g>
		</g>
	</g>
	<g>
		<g>
			<g>
				<g>
					<polygon fill="#999999" points="742,919.156 756.062,929.513 743.938,936.513 					"/>
				</g>
			</g>
			<g>
				<g>
					<polygon fill="#999999" points="258,80.844 243.938,70.487 256.062,63.487 					"/>
				</g>
			</g>
		</g>
	</g>
	<g>
		<g>
			<g>
				<g>
					<polygon fill="#999999" points="784.488,891.564 799.556,900.394 788.229,908.623 					"/>
				</g>
			</g>
			<g>
				<g>
					<polygon fill="#999999" points="215.512,108.436 200.444,99.606 211.77,91.377 					"/>
				</g>
			</g>
		</g>
	</g>
	<g>
		<g>
			<g>
				<g>
					<polygon fill="#999999" points="823.859,859.682 839.767,866.888 829.363,876.256 					"/>
				</g>
			</g>
			<g>
				<g>
					<polygon fill="#999999" points="176.141,140.318 160.233,133.111 170.637,123.744 					"/>
				</g>
			</g>
		</g>
	</g>
	<g>
		<g>
			<g>
				<g>
					<polygon fill="#999999" points="859.682,823.859 876.256,829.363 866.888,839.767 					"/>
				</g>
			</g>
			<g>
				<g>
					<polygon fill="#999999" points="140.318,176.141 123.744,170.637 133.111,160.233 					"/>
				</g>
			</g>
		</g>
	</g>
	<g>
		<g>
			<g>
				<g>
					<polygon fill="#999999" points="891.564,784.488 908.623,788.229 900.394,799.556 					"/>
				</g>
			</g>
			<g>
				<g>
					<polygon fill="#999999" points="108.436,215.512 91.377,211.77 99.606,200.444 					"/>
				</g>
			</g>
		</g>
	</g>
	<g>
		<g>
			<g>
				<g>
					<polygon fill="#999999" points="919.156,742 936.513,743.938 929.513,756.062 					"/>
				</g>
			</g>
			<g>
				<g>
					<polygon fill="#999999" points="80.844,258 63.487,256.062 70.487,243.938 					"/>
				</g>
			</g>
		</g>
	</g>
	<g>
		<g>
			<g>
				<g>
					<polygon fill="#999999" points="942.156,696.861 959.62,696.974 953.926,709.763 					"/>
				</g>
			</g>
			<g>
				<g>
					<polygon fill="#999999" points="57.844,303.139 40.38,303.026 46.074,290.237 					"/>
				</g>
			</g>
		</g>
	</g>
	<g>
		<g>
			<g>
				<g>
					<polygon fill="#999999" points="960.311,649.564 977.691,647.851 973.365,661.166 					"/>
				</g>
			</g>
			<g>
				<g>
					<polygon fill="#999999" points="39.689,350.436 22.309,352.149 26.635,338.834 					"/>
				</g>
			</g>
		</g>
	</g>
	<g>
		<g>
			<g>
				<g>
					<polygon fill="#999999" points="973.423,600.629 990.529,597.109 987.618,610.803 					"/>
				</g>
			</g>
			<g>
				<g>
					<polygon fill="#999999" points="26.577,399.371 9.471,402.891 12.382,389.197 					"/>
				</g>
			</g>
		</g>
	</g>
	<g>
		<g>
			<g>
				<g>
					<polygon fill="#999999" points="981.349,550.592 997.993,545.303 996.529,559.226 					"/>
				</g>
			</g>
			<g>
				<g>
					<polygon fill="#999999" points="18.651,449.408 2.007,454.697 3.471,440.774 					"/>
				</g>
			</g>
		</g>
	</g>
	<g>
		<g>
			<g>
				<g>
					<polygon fill="#999999" points="984,500 1000,493 1000,507 					"/>
				</g>
			</g>
			<g>
				<g>
					<polygon fill="#999999" points="16,500 0,507 0,493 					"/>
				</g>
			</g>
		</g>
	</g>
	<g>
		<g>
			<g>
				<g>
					<polygon fill="#999999" points="981.349,449.408 996.529,440.774 997.993,454.697 					"/>
				</g>
			</g>
			<g>
				<g>
					<polygon fill="#999999" points="18.651,550.592 3.471,559.226 2.007,545.303 					"/>
				</g>
			</g>
		</g>
	</g>
	<g>
		<g>
			<g>
				<g>
					<polygon fill="#999999" points="973.423,399.371 987.618,389.197 990.529,402.891 					"/>
				</g>
			</g>
			<g>
				<g>
					<polygon fill="#999999" points="26.577,600.629 12.382,610.803 9.471,597.109 					"/>
				</g>
			</g>
		</g>
	</g>
	<g>
		<g>
			<g>
				<g>
					<polygon fill="#999999" points="960.311,350.436 973.365,338.834 977.691,352.149 					"/>
				</g>
			</g>
			<g>
				<g>
					<polygon fill="#999999" points="39.689,649.564 26.635,661.166 22.309,647.851 					"/>
				</g>
			</g>
		</g>
	</g>
	<g>
		<g>
			<g>
				<g>
					<polygon fill="#999999" points="942.156,303.139 953.926,290.237 959.62,303.026 					"/>
				</g>
			</g>
			<g>
				<g>
					<polygon fill="#999999" points="57.844,696.861 46.074,709.763 40.38,696.974 					"/>
				</g>
			</g>
		</g>
	</g>
	<g>
		<g>
			<g>
				<g>
					<polygon fill="#999999" points="919.156,258 929.513,243.938 936.513,256.062 					"/>
				</g>
			</g>
			<g>
				<g>
					<polygon fill="#999999" points="80.844,742 70.487,756.062 63.487,743.938 					"/>
				</g>
			</g>
		</g>
	</g>
	<g>
		<g>
			<g>
				<g>
					<polygon fill="#999999" points="891.564,215.512 900.394,200.444 908.623,211.77 					"/>
				</g>
			</g>
			<g>
				<g>
					<polygon fill="#999999" points="108.436,784.488 99.606,799.556 91.377,788.229 					"/>
				</g>
			</g>
		</g>
	</g>
	<g>
		<g>
			<g>
				<g>
					<polygon fill="#999999" points="859.682,176.141 866.888,160.233 876.256,170.637 					"/>
				</g>
			</g>
			<g>
				<g>
					<polygon fill="#999999" points="140.318,823.859 133.111,839.767 123.744,829.363 					"/>
				</g>
			</g>
		</g>
	</g>
	<g>
		<g>
			<g>
				<g>
					<polygon fill="#999999" points="823.859,140.318 829.363,123.744 839.767,133.111 					"/>
				</g>
			</g>
			<g>
				<g>
					<polygon fill="#999999" points="176.141,859.682 170.637,876.256 160.233,866.888 					"/>
				</g>
			</g>
		</g>
	</g>
	<g>
		<g>
			<g>
				<g>
					<polygon fill="#999999" points="784.488,108.436 788.229,91.377 799.556,99.606 					"/>
				</g>
			</g>
			<g>
				<g>
					<polygon fill="#999999" points="215.512,891.564 211.77,908.623 200.444,900.394 					"/>
				</g>
			</g>
		</g>
	</g>
	<g>
		<g>
			<g>
				<g>
					<polygon fill="#999999" points="742,80.844 743.938,63.487 756.062,70.487 					"/>
				</g>
			</g>
			<g>
				<g>
					<polygon fill="#999999" points="258,919.156 256.062,936.513 243.938,929.513 					"/>
				</g>
			</g>
		</g>
	</g>
	<g>
		<g>
			<g>
				<g>
					<polygon fill="#999999" points="696.861,57.844 696.974,40.38 709.763,46.074 					"/>
				</g>
			</g>
			<g>
				<g>
					<polygon fill="#999999" points="303.139,942.156 303.026,959.62 290.237,953.926 					"/>
				</g>
			</g>
		</g>
	</g>
	<g>
		<g>
			<g>
				<g>
					<polygon fill="#999999" points="649.564,39.689 647.851,22.309 661.166,26.635 					"/>
				</g>
			</g>
			<g>
				<g>
					<polygon fill="#999999" points="350.436,960.311 352.149,977.691 338.834,973.365 					"/>
				</g>
			</g>
		</g>
	</g>
	<g>
		<g>
			<g>
				<g>
					<polygon fill="#999999" points="600.629,26.577 597.109,9.471 610.803,12.382 					"/>
				</g>
			</g>
			<g>
				<g>
					<polygon fill="#999999" points="399.371,973.423 402.891,990.529 389.197,987.618 					"/>
				</g>
			</g>
		</g>
	</g>
	<g>
		<g>
			<g>
				<g>
					<polygon fill="#999999" points="550.592,18.651 545.303,2.007 559.226,3.471 					"/>
				</g>
			</g>
			<g>
				<g>
					<polygon fill="#999999" points="449.408,981.349 454.697,997.993 440.774,996.529 					"/>
				</g>
			</g>
		</g>
	</g>
	<g>
		<g>
			<g>
				<g>
					<polygon fill="#999999" points="500,16 493,0 507,0 					"/>
				</g>
			</g>
			<g>
				<g>
					<polygon fill="#999999" points="500,984 507,1000 493,1000 					"/>
				</g>
			</g>
		</g>
	</g>
</g>
<g>
</g>
<g>
</g>
<g>
</g>
<g>
</g>
<g>
</g>
<g>
</g>
<g>
</g>
<g>
</g>
<g>
</g>
<g>
</g>
<g>
</g>
<g>
</g>
<g>
</g>
<g>
</g>
<g>
</g>
</svg>
